<svg width="101" height="20" fill="none" xmlns="http://www.w3.org/2000/svg"><path d="M13.204 1.777a2.542 2.542 0 011.55-.527h76.929c1.106 0 2.156.478 2.876 1.31l5.033 5.813c.81.936.81 2.318 0 3.254l-5.033 5.813a3.804 3.804 0 01-2.876 1.31H14.321a1.27 1.27 0 01-.775-.263L2.525 10l10.679-8.223z" fill="#FFF7FA"/><path d="M2.331 9.753l-.32.247.32.247 11.02 8.486c.278.214.619.33.97.33h77.362a4.12 4.12 0 003.115-1.42l5.033-5.813a2.791 2.791 0 000-3.66l-5.033-5.814A4.12 4.12 0 0091.683.938h-76.93a2.86 2.86 0 00-1.743.592L2.33 9.753z" stroke="#94011B" stroke-opacity=".5" stroke-width=".5"/><path d="M34.845 13.757c1.556 0 2.666-.75 2.666-2.12 0-1.02-.696-1.8-1.919-2.01l-1.252-.23c-.566-.1-.869-.4-.869-.84 0-.61.445-.98 1.213-.98.767 0 1.272.37 1.383 1.03l1.273-.19c-.162-1.2-1.243-1.9-2.687-1.9-1.515 0-2.545.76-2.545 2.05 0 .99.646 1.79 1.778 2l1.383.26c.627.12.879.45.879.88 0 .61-.495.99-1.323.99-.869 0-1.414-.42-1.525-1.07l-1.283.19c.172 1.21 1.293 1.94 2.828 1.94zm5.544 0c.768 0 1.273-.36 1.576-.98h.05l.081.86h1.202v-5.47h-1.384v3.14c0 .83-.394 1.35-1.09 1.35-.586 0-.97-.37-.97-1.11v-3.38H38.47v3.6c0 1.22.788 1.99 1.92 1.99zm4.198 1.93h1.384v-2.8h.05c.374.6.91.87 1.586.87 1.434 0 2.333-1.13 2.333-2.87 0-1.73-.909-2.84-2.313-2.84-.808 0-1.403.36-1.696 1.02h-.05l-.112-.9h-1.182v7.52zm2.667-3.05c-.788 0-1.283-.65-1.283-1.75 0-1.07.495-1.73 1.283-1.73.798 0 1.303.65 1.303 1.73 0 1.09-.505 1.75-1.303 1.75zm6.079 1.12c1.182 0 2.02-.58 2.242-1.48l-1.131-.27c-.152.44-.546.75-1.131.75-.758 0-1.222-.53-1.283-1.48h3.626c.03-.11.05-.39.05-.63 0-1.59-1.01-2.6-2.464-2.6-1.566 0-2.575 1.1-2.575 2.85 0 1.78 1.06 2.86 2.666 2.86zm-.07-4.71c.767 0 1.201.56 1.18 1.35H52.02c.07-.9.545-1.35 1.242-1.35zm3.446 4.59h1.384v-2.93c0-.93.374-1.46 1.151-1.46.233 0 .495.05.728.18l.353-1.01c-.273-.2-.596-.31-.96-.31-.626 0-1.05.34-1.322.93h-.05l-.102-.87H56.71v5.47zm9.383.12c1.555 0 2.666-.75 2.666-2.12 0-1.02-.697-1.8-1.919-2.01l-1.252-.23c-.566-.1-.869-.4-.869-.84 0-.61.445-.98 1.212-.98.768 0 1.273.37 1.384 1.03l1.273-.19c-.162-1.2-1.243-1.9-2.687-1.9-1.515 0-2.545.76-2.545 2.05 0 .99.646 1.79 1.777 2l1.384.26c.626.12.879.45.879.88 0 .61-.495.99-1.323.99-.869 0-1.414-.42-1.525-1.07l-1.283.19c.172 1.21 1.293 1.94 2.828 1.94zm6.149 0c1.181 0 2.02-.58 2.242-1.48l-1.131-.27c-.152.44-.546.75-1.132.75-.757 0-1.222-.53-1.282-1.48h3.626c.03-.11.05-.39.05-.63 0-1.59-1.01-2.6-2.464-2.6-1.566 0-2.576 1.1-2.576 2.85 0 1.78 1.06 2.86 2.667 2.86zm-.071-4.71c.768 0 1.202.56 1.182 1.35h-2.424c.07-.9.545-1.35 1.242-1.35zm4.366 4.65h.99v-1.04h-.171c-.263 0-.354-.12-.354-.36v-5.78h-1.384v6.27c0 .56.334.91.92.91zm2.782 0h.99v-1.04h-.172c-.263 0-.354-.12-.354-.36v-5.78H78.4v6.27c0 .56.333.91.919.91zm4.167.06c1.182 0 2.02-.58 2.242-1.48l-1.131-.27c-.152.44-.546.75-1.131.75-.758 0-1.222-.53-1.283-1.48h3.626c.03-.11.05-.39.05-.63 0-1.59-1.01-2.6-2.464-2.6-1.566 0-2.576 1.1-2.576 2.85 0 1.78 1.061 2.86 2.667 2.86zm-.07-4.71c.767 0 1.201.56 1.18 1.35h-2.423c.07-.9.545-1.35 1.242-1.35zm3.447 4.59h1.383v-2.93c0-.93.374-1.46 1.152-1.46.232 0 .494.05.727.18l.353-1.01c-.272-.2-.596-.31-.96-.31-.625 0-1.05.34-1.322.93h-.05l-.102-.87h-1.181v5.47z" fill="#750019"/><path d="M27.312 5.857H.462c-.23 0-.462.22-.462.438l.231 1.753c.348 2.08 2.2 3.614 4.398 3.614H2.893c-.347 0-.578.328-.347.657 1.273 1.971 3.588 3.505 6.48 4.381a10.822 10.822 0 013.473 1.971l.578.548c.463.438 1.39.438 1.852 0l.579-.548c.926-.876 2.083-1.642 3.472-1.971 2.893-.876 5.207-2.41 6.48-4.381.232-.329 0-.657-.347-.657h-1.967c2.199 0 4.05-1.534 4.398-3.614l.231-1.753c0-.219-.231-.438-.463-.438z" fill="url(#paint0_radial)"/><path d="M13.888 17.905c5.113 0 9.258-3.923 9.258-8.762C23.146 4.303 19 .38 13.888.38c-5.114 0-9.259 3.923-9.259 8.762s4.145 8.762 9.259 8.762z" fill="url(#paint1_linear)"/><path d="M14.35 3.557l1.505 2.957 3.472.438c.463.11.694.658.347.986l-2.43 2.3.578 3.286c.116.438-.463.767-.81.548l-3.125-1.534-3.124 1.534c-.347.219-.926-.11-.81-.548l.578-3.286-2.546-2.3c-.347-.328-.115-.876.348-.986l3.472-.438 1.504-2.957c.231-.438.926-.438 1.042 0z" fill="url(#paint2_linear)"/><path d="M13.888.381c-5.092 0-9.259 3.943-9.259 8.762v.219c2.778.548 5.902.876 9.259.876 3.356 0 6.48-.328 9.258-.876v-.22c0-4.818-4.166-8.761-9.258-8.761z" fill="url(#paint3_linear)"/><path d="M19.442 7.062l-3.472-.438-1.504-2.957a.577.577 0 00-1.041 0L11.92 6.624l-3.472.438c-.463.11-.694.657-.347.986l2.314 2.19c1.158.11 2.315.11 3.472.11 1.158 0 2.315 0 3.472-.11l2.315-2.19c.463-.438.231-.986-.232-.986z" fill="url(#paint4_linear)"/><defs><linearGradient id="paint1_linear" x1="13.888" y1="17.934" x2="13.888" y2="10.57" gradientUnits="userSpaceOnUse"><stop stop-color="#D10023"/><stop offset="1" stop-color="#B30026"/></linearGradient><linearGradient id="paint2_linear" x1="13.887" y1="13.936" x2="13.887" y2="9.112" gradientUnits="userSpaceOnUse"><stop stop-color="#D1D1D1"/><stop offset="1" stop-color="#B8B8B8"/></linearGradient><linearGradient id="paint3_linear" x1="13.888" y1="10.674" x2="13.888" y2="-4.39" gradientUnits="userSpaceOnUse"><stop stop-color="#FF002B"/><stop offset="1" stop-color="#C00"/></linearGradient><linearGradient id="paint4_linear" x1="13.887" y1="9.703" x2="13.887" y2="2.71" gradientUnits="userSpaceOnUse"><stop stop-color="#fff"/><stop offset="1" stop-color="#D1D1D1"/></linearGradient><radialGradient id="paint0_radial" cx="0" cy="0" r="1" gradientUnits="userSpaceOnUse" gradientTransform="matrix(14.3598 0 0 13.5899 13.887 12.742)"><stop offset=".62" stop-color="#750019"/><stop offset="1" stop-color="#AD001D"/></radialGradient></defs></svg>